# xmcd
#
# Track frame offsets: 
#        187
#        13250
#        27570
#        41257
#        53012
#        67722
#        78117
#        90945
#        103865
#        118295
#        130940
#        145467
#        158657
#        169770
#        179785
#        192202
#        205027
#        215700
#        230300
#        263002
#
# Disc length: 3666 seconds
#
# Revision: 1
# Processed by: cddbd v1.5.2PL0 Copyright (c) Steve Scherf et al.
# Submitted via: ExactAudioCopy v1.0b3
#
DISCID=120e5014
DTITLE=Various Artist - The Best Of Chess Blues
DYEAR=1996
DGENRE=Blues
TTITLE0=Muddy Waters - Hoochie Coochie Man
TTITLE1=Howlin' Wolf - Smokestack Lightnin'
TTITLE2=Little Walter - Can't Hold Out Much Longer
TTITLE3=Sonny Boy Williamson - Bing It On Home
TTITLE4=Robert Nighthawk - Anna Lee
TTITLE5=Elmore James - Talk To Me Baby 
TTITLE6=Jackie Brenston and His Delta Cats - Rocket 88
TTITLE7=Jimmy Witherspoon - When The Lights Go Out
TTITLE8=Willie Mabon and His Bombo - I Don't Know Why
TTITLE9=Jimmy McCracklin - The Walk
TTITLE10=Lowell Fulson - Reconsider Baby
TTITLE11=Clifton Chenier - It's My Soul
TTITLE12=Sugar Boy Crawford - Jock-A-Mo
TTITLE13=T.V. Slim - Flat Foot Sam
TTITLE14=John Lee Hooker - Mad Man Blues
TTITLE15=Jimmy Rogers - That's All Right
TTITLE16=J.B. Lenoir - Mama Talk To Your Daughter
TTITLE17=Otis Rush - So Many Roads
TTITLE18=Buddy Guy - Stone Crazy
TTITLE19=Little Milton - Grits Ain't Groceries
EXTD=
EXTT0=
EXTT1=
EXTT2=
EXTT3=
EXTT4=
EXTT5=
EXTT6=
EXTT7=
EXTT8=
EXTT9=
EXTT10=
EXTT11=
EXTT12=
EXTT13=
EXTT14=
EXTT15=
EXTT16=
EXTT17=
EXTT18=
EXTT19=
PLAYORDER=
